<?xml version="1.0"?>
<svg height="1800" width="3600" version="1.1"
    xmlns="http://www.w3.org/2000/svg">
<circle cx="955" cy="564" stroke="black" stroke-width="1" fill="black" r="1"/>
<circle cx="2965" cy="500" stroke="black" stroke-width="1" fill="black" r="1"/>
<circle cx="2353" cy="648" stroke="black" stroke-width="1" fill="black" r="1"/>
<circle cx="3197" cy="545" stroke="black" stroke-width="1" fill="black" r="1"/>
<circle cx="615" cy="561" stroke="black" stroke-width="1" fill="black" r="1"/>
<circle cx="920" cy="481" stroke="black" stroke-width="1" fill="black" r="1"/>
<circle cx="1795" cy="386" stroke="black" stroke-width="1" fill="black" r="1"/>
<circle cx="2939" cy="677" stroke="black" stroke-width="1" fill="black" r="1"/>
<circle cx="3018" cy="589" stroke="black" stroke-width="1" fill="black" r="1"/>
<circle cx="1825" cy="410" stroke="black" stroke-width="1" fill="black" r="1"/>
<circle cx="1847" cy="377" stroke="black" stroke-width="1" fill="black" r="1"/>
<circle cx="829" cy="572" stroke="black" stroke-width="1" fill="black" r="1"/>
<circle cx="2932" cy="667" stroke="black" stroke-width="1" fill="black" r="1"/>
<circle cx="1885" cy="400" stroke="black" stroke-width="1" fill="black" r="1"/>
<circle cx="2088" cy="491" stroke="black" stroke-width="1" fill="black" r="1"/>
<circle cx="2570" cy="615" stroke="black" stroke-width="1" fill="black" r="1"/>
<circle cx="2866" cy="962" stroke="black" stroke-width="1" fill="black" r="1"/>
<circle cx="2839" cy="887" stroke="black" stroke-width="1" fill="black" r="1"/>
<circle cx="3064" cy="526" stroke="black" stroke-width="1" fill="black" r="1"/>
<circle cx="753" cy="502" stroke="black" stroke-width="1" fill="black" r="1"/>
<circle cx="2807" cy="764" stroke="black" stroke-width="1" fill="black" r="1"/>
<circle cx="1062" cy="494" stroke="black" stroke-width="1" fill="black" r="1"/>
<circle cx="2817" cy="873" stroke="black" stroke-width="1" fill="black" r="1"/>
<circle cx="576" cy="524" stroke="black" stroke-width="1" fill="black" r="1"/>
<circle cx="1764" cy="496" stroke="black" stroke-width="1" fill="black" r="1"/>
<circle cx="2839" cy="595" stroke="black" stroke-width="1" fill="black" r="1"/>
<circle cx="648" cy="540" stroke="black" stroke-width="1" fill="black" r="1"/>
<circle cx="1820" cy="488" stroke="black" stroke-width="1" fill="black" r="1"/>
<circle cx="2528" cy="710" stroke="black" stroke-width="1" fill="black" r="1"/>
<circle cx="1003" cy="464" stroke="black" stroke-width="1" fill="black" r="1"/>
<circle cx="576" cy="426" stroke="black" stroke-width="1" fill="black" r="1"/>
<circle cx="990" cy="548" stroke="black" stroke-width="1" fill="black" r="1"/>
<circle cx="2938" cy="674" stroke="black" stroke-width="1" fill="black" r="1"/>
<circle cx="1798" cy="389" stroke="black" stroke-width="1" fill="black" r="1"/>
<circle cx="3012" cy="650" stroke="black" stroke-width="1" fill="black" r="1"/>
<circle cx="809" cy="706" stroke="black" stroke-width="1" fill="black" r="1"/>
<circle cx="2829" cy="649" stroke="black" stroke-width="1" fill="black" r="1"/>
<circle cx="986" cy="616" stroke="black" stroke-width="1" fill="black" r="1"/>
<circle cx="1917" cy="417" stroke="black" stroke-width="1" fill="black" r="1"/>
<circle cx="997" cy="643" stroke="black" stroke-width="1" fill="black" r="1"/>
<circle cx="679" cy="566" stroke="black" stroke-width="1" fill="black" r="1"/>
<circle cx="3311" cy="1240" stroke="black" stroke-width="1" fill="black" r="1"/>
<circle cx="1058" cy="494" stroke="black" stroke-width="1" fill="black" r="1"/>
<circle cx="3010" cy="755" stroke="black" stroke-width="1" fill="black" r="1"/>
<circle cx="3013" cy="589" stroke="black" stroke-width="1" fill="black" r="1"/>
<circle cx="2887" cy="556" stroke="black" stroke-width="1" fill="black" r="1"/>
<circle cx="1922" cy="482" stroke="black" stroke-width="1" fill="black" r="1"/>
<circle cx="846" cy="601" stroke="black" stroke-width="1" fill="black" r="1"/>
<circle cx="3203" cy="543" stroke="black" stroke-width="1" fill="black" r="1"/>
<circle cx="2174" cy="341" stroke="black" stroke-width="1" fill="black" r="1"/>
<circle cx="2866" cy="603" stroke="black" stroke-width="1" fill="black" r="1"/>
<circle cx="1089" cy="477" stroke="black" stroke-width="1" fill="black" r="1"/>
<circle cx="2806" cy="761" stroke="black" stroke-width="1" fill="black" r="1"/>
<circle cx="867" cy="452" stroke="black" stroke-width="1" fill="black" r="1"/>
<circle cx="1335" cy="1135" stroke="black" stroke-width="1" fill="black" r="1"/>
<circle cx="3248" cy="1277" stroke="black" stroke-width="1" fill="black" r="1"/>
<circle cx="3004" cy="598" stroke="black" stroke-width="1" fill="black" r="1"/>
<circle cx="2316" cy="648" stroke="black" stroke-width="1" fill="black" r="1"/>
<circle cx="966" cy="478" stroke="black" stroke-width="1" fill="black" r="1"/>
<circle cx="2191" cy="684" stroke="black" stroke-width="1" fill="black" r="1"/>
<circle cx="998" cy="640" stroke="black" stroke-width="1" fill="black" r="1"/>
<circle cx="1823" cy="413" stroke="black" stroke-width="1" fill="black" r="1"/>
<circle cx="2093" cy="492" stroke="black" stroke-width="1" fill="black" r="1"/>
<circle cx="2179" cy="346" stroke="black" stroke-width="1" fill="black" r="1"/>
<circle cx="3064" cy="565" stroke="black" stroke-width="1" fill="black" r="1"/>
<circle cx="1737" cy="366" stroke="black" stroke-width="1" fill="black" r="1"/>
<circle cx="1061" cy="493" stroke="black" stroke-width="1" fill="black" r="1"/>
<circle cx="1885" cy="426" stroke="black" stroke-width="1" fill="black" r="1"/>
<circle cx="1926" cy="344" stroke="black" stroke-width="1" fill="black" r="1"/>
<circle cx="1827" cy="505" stroke="black" stroke-width="1" fill="black" r="1"/>
<circle cx="3152" cy="556" stroke="black" stroke-width="1" fill="black" r="1"/>
<circle cx="1777" cy="367" stroke="black" stroke-width="1" fill="black" r="1"/>
<circle cx="1910" cy="298" stroke="black" stroke-width="1" fill="black" r="1"/>
<circle cx="1708" cy="513" stroke="black" stroke-width="1" fill="black" r="1"/>
<circle cx="1979" cy="304" stroke="black" stroke-width="1" fill="black" r="1"/>
<circle cx="1802" cy="382" stroke="black" stroke-width="1" fill="black" r="1"/>
<circle cx="2107" cy="531" stroke="black" stroke-width="1" fill="black" r="1"/>
<circle cx="2988" cy="583" stroke="black" stroke-width="1" fill="black" r="1"/>
<circle cx="3067" cy="525" stroke="black" stroke-width="1" fill="black" r="1"/>
<circle cx="1844" cy="391" stroke="black" stroke-width="1" fill="black" r="1"/>
<circle cx="1867" cy="388" stroke="black" stroke-width="1" fill="black" r="1"/>
<circle cx="2981" cy="655" stroke="black" stroke-width="1" fill="black" r="1"/>
<circle cx="1965" cy="419" stroke="black" stroke-width="1" fill="black" r="1"/>
<circle cx="2938" cy="555" stroke="black" stroke-width="1" fill="black" r="1"/>
<circle cx="3104" cy="565" stroke="black" stroke-width="1" fill="black" r="1"/>
<circle cx="2932" cy="619" stroke="black" stroke-width="1" fill="black" r="1"/>
<circle cx="931" cy="690" stroke="black" stroke-width="1" fill="black" r="1"/>
<circle cx="568" cy="409" stroke="black" stroke-width="1" fill="black" r="1"/>
<circle cx="3003" cy="538" stroke="black" stroke-width="1" fill="black" r="1"/>
<circle cx="2942" cy="593" stroke="black" stroke-width="1" fill="black" r="1"/>
<circle cx="3331" cy="1174" stroke="black" stroke-width="1" fill="black" r="1"/>
<circle cx="2904" cy="701" stroke="black" stroke-width="1" fill="black" r="1"/>
<circle cx="1887" cy="444" stroke="black" stroke-width="1" fill="black" r="1"/>
<circle cx="2039" cy="521" stroke="black" stroke-width="1" fill="black" r="1"/>
<circle cx="2674" cy="461" stroke="black" stroke-width="1" fill="black" r="1"/>
<circle cx="2082" cy="1162" stroke="black" stroke-width="1" fill="black" r="1"/>
<circle cx="2973" cy="509" stroke="black" stroke-width="1" fill="black" r="1"/>
<circle cx="2148" cy="580" stroke="black" stroke-width="1" fill="black" r="1"/>
<circle cx="1932" cy="375" stroke="black" stroke-width="1" fill="black" r="1"/>
<circle cx="2894" cy="717" stroke="black" stroke-width="1" fill="black" r="1"/>
</svg>
