<?xml version="1.0"?>
<svg height="1800" width="3600" version="1.1"
    xmlns="http://www.w3.org/2000/svg">
<circle cx="955" cy="564" stroke="black" stroke-width="1" fill="black" r="1"/>
<circle cx="2965" cy="500" stroke="black" stroke-width="1" fill="black" r="1"/>
<circle cx="2353" cy="648" stroke="black" stroke-width="1" fill="black" r="1"/>
<circle cx="3197" cy="545" stroke="black" stroke-width="1" fill="black" r="1"/>
<circle cx="615" cy="561" stroke="black" stroke-width="1" fill="black" r="1"/>
<circle cx="920" cy="481" stroke="black" stroke-width="1" fill="black" r="1"/>
<circle cx="1795" cy="386" stroke="black" stroke-width="1" fill="black" r="1"/>
<circle cx="2939" cy="677" stroke="black" stroke-width="1" fill="black" r="1"/>
<circle cx="3018" cy="589" stroke="black" stroke-width="1" fill="black" r="1"/>
<circle cx="1825" cy="410" stroke="black" stroke-width="1" fill="black" r="1"/>
<circle cx="1847" cy="377" stroke="black" stroke-width="1" fill="black" r="1"/>
<circle cx="829" cy="572" stroke="black" stroke-width="1" fill="black" r="1"/>
<circle cx="2932" cy="667" stroke="black" stroke-width="1" fill="black" r="1"/>
<circle cx="1885" cy="400" stroke="black" stroke-width="1" fill="black" r="1"/>
<circle cx="2088" cy="491" stroke="black" stroke-width="1" fill="black" r="1"/>
<circle cx="2570" cy="615" stroke="black" stroke-width="1" fill="black" r="1"/>
<circle cx="2866" cy="962" stroke="black" stroke-width="1" fill="black" r="1"/>
<circle cx="2839" cy="887" stroke="black" stroke-width="1" fill="black" r="1"/>
<circle cx="3064" cy="526" stroke="black" stroke-width="1" fill="black" r="1"/>
<circle cx="753" cy="502" stroke="black" stroke-width="1" fill="black" r="1"/>
<circle cx="2807" cy="764" stroke="black" stroke-width="1" fill="black" r="1"/>
<circle cx="1062" cy="494" stroke="black" stroke-width="1" fill="black" r="1"/>
<circle cx="2817" cy="873" stroke="black" stroke-width="1" fill="black" r="1"/>
<circle cx="576" cy="524" stroke="black" stroke-width="1" fill="black" r="1"/>
<circle cx="1764" cy="496" stroke="black" stroke-width="1" fill="black" r="1"/>
<circle cx="2839" cy="595" stroke="black" stroke-width="1" fill="black" r="1"/>
<circle cx="648" cy="540" stroke="black" stroke-width="1" fill="black" r="1"/>
<circle cx="1820" cy="488" stroke="black" stroke-width="1" fill="black" r="1"/>
<circle cx="2528" cy="710" stroke="black" stroke-width="1" fill="black" r="1"/>
<circle cx="1003" cy="464" stroke="black" stroke-width="1" fill="black" r="1"/>
<circle cx="576" cy="426" stroke="black" stroke-width="1" fill="black" r="1"/>
<circle cx="990" cy="548" stroke="black" stroke-width="1" fill="black" r="1"/>
<circle cx="2938" cy="674" stroke="black" stroke-width="1" fill="black" r="1"/>
<circle cx="1798" cy="389" stroke="black" stroke-width="1" fill="black" r="1"/>
<circle cx="3012" cy="650" stroke="black" stroke-width="1" fill="black" r="1"/>
<circle cx="809" cy="706" stroke="black" stroke-width="1" fill="black" r="1"/>
<circle cx="2829" cy="649" stroke="black" stroke-width="1" fill="black" r="1"/>
<circle cx="986" cy="616" stroke="black" stroke-width="1" fill="black" r="1"/>
<circle cx="1917" cy="417" stroke="black" stroke-width="1" fill="black" r="1"/>
<circle cx="997" cy="643" stroke="black" stroke-width="1" fill="black" r="1"/>
<circle cx="679" cy="566" stroke="black" stroke-width="1" fill="black" r="1"/>
<circle cx="3311" cy="1240" stroke="black" stroke-width="1" fill="black" r="1"/>
<circle cx="1058" cy="494" stroke="black" stroke-width="1" fill="black" r="1"/>
<circle cx="3010" cy="755" stroke="black" stroke-width="1" fill="black" r="1"/>
<circle cx="3013" cy="589" stroke="black" stroke-width="1" fill="black" r="1"/>
<circle cx="2887" cy="556" stroke="black" stroke-width="1" fill="black" r="1"/>
<circle cx="1922" cy="482" stroke="black" stroke-width="1" fill="black" r="1"/>
<circle cx="846" cy="601" stroke="black" stroke-width="1" fill="black" r="1"/>
<circle cx="3203" cy="543" stroke="black" stroke-width="1" fill="black" r="1"/>
<circle cx="2174" cy="341" stroke="black" stroke-width="1" fill="black" r="1"/>
</svg>
