<?xml version="1.0"?>
<svg height="1800" width="3600" version="1.1"
    xmlns="http://www.w3.org/2000/svg">
<circle cx="955" cy="564" stroke="black" stroke-width="1" fill="black" r="1"/>
<circle cx="2965" cy="500" stroke="black" stroke-width="1" fill="black" r="1"/>
<circle cx="2353" cy="648" stroke="black" stroke-width="1" fill="black" r="1"/>
<circle cx="3197" cy="545" stroke="black" stroke-width="1" fill="black" r="1"/>
<circle cx="615" cy="561" stroke="black" stroke-width="1" fill="black" r="1"/>
<circle cx="920" cy="481" stroke="black" stroke-width="1" fill="black" r="1"/>
<circle cx="1795" cy="386" stroke="black" stroke-width="1" fill="black" r="1"/>
<circle cx="2939" cy="677" stroke="black" stroke-width="1" fill="black" r="1"/>
<circle cx="3018" cy="589" stroke="black" stroke-width="1" fill="black" r="1"/>
<circle cx="1825" cy="410" stroke="black" stroke-width="1" fill="black" r="1"/>
<circle cx="1847" cy="377" stroke="black" stroke-width="1" fill="black" r="1"/>
<circle cx="829" cy="572" stroke="black" stroke-width="1" fill="black" r="1"/>
<circle cx="2932" cy="667" stroke="black" stroke-width="1" fill="black" r="1"/>
<circle cx="1885" cy="400" stroke="black" stroke-width="1" fill="black" r="1"/>
<circle cx="2088" cy="491" stroke="black" stroke-width="1" fill="black" r="1"/>
<circle cx="2570" cy="615" stroke="black" stroke-width="1" fill="black" r="1"/>
<circle cx="2866" cy="962" stroke="black" stroke-width="1" fill="black" r="1"/>
<circle cx="2839" cy="887" stroke="black" stroke-width="1" fill="black" r="1"/>
<circle cx="3064" cy="526" stroke="black" stroke-width="1" fill="black" r="1"/>
<circle cx="753" cy="502" stroke="black" stroke-width="1" fill="black" r="1"/>
<circle cx="2807" cy="764" stroke="black" stroke-width="1" fill="black" r="1"/>
<circle cx="1062" cy="494" stroke="black" stroke-width="1" fill="black" r="1"/>
<circle cx="2817" cy="873" stroke="black" stroke-width="1" fill="black" r="1"/>
<circle cx="576" cy="524" stroke="black" stroke-width="1" fill="black" r="1"/>
<circle cx="1764" cy="496" stroke="black" stroke-width="1" fill="black" r="1"/>
<circle cx="2839" cy="595" stroke="black" stroke-width="1" fill="black" r="1"/>
<circle cx="648" cy="540" stroke="black" stroke-width="1" fill="black" r="1"/>
<circle cx="1820" cy="488" stroke="black" stroke-width="1" fill="black" r="1"/>
<circle cx="2528" cy="710" stroke="black" stroke-width="1" fill="black" r="1"/>
<circle cx="1003" cy="464" stroke="black" stroke-width="1" fill="black" r="1"/>
<circle cx="576" cy="426" stroke="black" stroke-width="1" fill="black" r="1"/>
<circle cx="990" cy="548" stroke="black" stroke-width="1" fill="black" r="1"/>
<circle cx="2938" cy="674" stroke="black" stroke-width="1" fill="black" r="1"/>
<circle cx="1798" cy="389" stroke="black" stroke-width="1" fill="black" r="1"/>
<circle cx="3012" cy="650" stroke="black" stroke-width="1" fill="black" r="1"/>
<circle cx="809" cy="706" stroke="black" stroke-width="1" fill="black" r="1"/>
<circle cx="2829" cy="649" stroke="black" stroke-width="1" fill="black" r="1"/>
<circle cx="986" cy="616" stroke="black" stroke-width="1" fill="black" r="1"/>
<circle cx="1917" cy="417" stroke="black" stroke-width="1" fill="black" r="1"/>
<circle cx="997" cy="643" stroke="black" stroke-width="1" fill="black" r="1"/>
<circle cx="679" cy="566" stroke="black" stroke-width="1" fill="black" r="1"/>
<circle cx="3311" cy="1240" stroke="black" stroke-width="1" fill="black" r="1"/>
<circle cx="1058" cy="494" stroke="black" stroke-width="1" fill="black" r="1"/>
<circle cx="3010" cy="755" stroke="black" stroke-width="1" fill="black" r="1"/>
<circle cx="3013" cy="589" stroke="black" stroke-width="1" fill="black" r="1"/>
<circle cx="2887" cy="556" stroke="black" stroke-width="1" fill="black" r="1"/>
<circle cx="1922" cy="482" stroke="black" stroke-width="1" fill="black" r="1"/>
<circle cx="846" cy="601" stroke="black" stroke-width="1" fill="black" r="1"/>
<circle cx="3203" cy="543" stroke="black" stroke-width="1" fill="black" r="1"/>
<circle cx="2174" cy="341" stroke="black" stroke-width="1" fill="black" r="1"/>
<circle cx="2866" cy="603" stroke="black" stroke-width="1" fill="black" r="1"/>
<circle cx="1089" cy="477" stroke="black" stroke-width="1" fill="black" r="1"/>
<circle cx="2806" cy="761" stroke="black" stroke-width="1" fill="black" r="1"/>
<circle cx="867" cy="452" stroke="black" stroke-width="1" fill="black" r="1"/>
<circle cx="1335" cy="1135" stroke="black" stroke-width="1" fill="black" r="1"/>
<circle cx="3248" cy="1277" stroke="black" stroke-width="1" fill="black" r="1"/>
<circle cx="3004" cy="598" stroke="black" stroke-width="1" fill="black" r="1"/>
<circle cx="2316" cy="648" stroke="black" stroke-width="1" fill="black" r="1"/>
<circle cx="966" cy="478" stroke="black" stroke-width="1" fill="black" r="1"/>
<circle cx="2191" cy="684" stroke="black" stroke-width="1" fill="black" r="1"/>
<circle cx="998" cy="640" stroke="black" stroke-width="1" fill="black" r="1"/>
<circle cx="1823" cy="413" stroke="black" stroke-width="1" fill="black" r="1"/>
<circle cx="2093" cy="492" stroke="black" stroke-width="1" fill="black" r="1"/>
<circle cx="2179" cy="346" stroke="black" stroke-width="1" fill="black" r="1"/>
<circle cx="3064" cy="565" stroke="black" stroke-width="1" fill="black" r="1"/>
<circle cx="1737" cy="366" stroke="black" stroke-width="1" fill="black" r="1"/>
<circle cx="1061" cy="493" stroke="black" stroke-width="1" fill="black" r="1"/>
<circle cx="1885" cy="426" stroke="black" stroke-width="1" fill="black" r="1"/>
<circle cx="1926" cy="344" stroke="black" stroke-width="1" fill="black" r="1"/>
<circle cx="1827" cy="505" stroke="black" stroke-width="1" fill="black" r="1"/>
<circle cx="3152" cy="556" stroke="black" stroke-width="1" fill="black" r="1"/>
<circle cx="1777" cy="367" stroke="black" stroke-width="1" fill="black" r="1"/>
<circle cx="1910" cy="298" stroke="black" stroke-width="1" fill="black" r="1"/>
<circle cx="1708" cy="513" stroke="black" stroke-width="1" fill="black" r="1"/>
<circle cx="1979" cy="304" stroke="black" stroke-width="1" fill="black" r="1"/>
<circle cx="1802" cy="382" stroke="black" stroke-width="1" fill="black" r="1"/>
<circle cx="2107" cy="531" stroke="black" stroke-width="1" fill="black" r="1"/>
<circle cx="2988" cy="583" stroke="black" stroke-width="1" fill="black" r="1"/>
<circle cx="3067" cy="525" stroke="black" stroke-width="1" fill="black" r="1"/>
<circle cx="1844" cy="391" stroke="black" stroke-width="1" fill="black" r="1"/>
<circle cx="1867" cy="388" stroke="black" stroke-width="1" fill="black" r="1"/>
<circle cx="2981" cy="655" stroke="black" stroke-width="1" fill="black" r="1"/>
<circle cx="1965" cy="419" stroke="black" stroke-width="1" fill="black" r="1"/>
<circle cx="2938" cy="555" stroke="black" stroke-width="1" fill="black" r="1"/>
<circle cx="3104" cy="565" stroke="black" stroke-width="1" fill="black" r="1"/>
<circle cx="2932" cy="619" stroke="black" stroke-width="1" fill="black" r="1"/>
<circle cx="931" cy="690" stroke="black" stroke-width="1" fill="black" r="1"/>
<circle cx="568" cy="409" stroke="black" stroke-width="1" fill="black" r="1"/>
<circle cx="3003" cy="538" stroke="black" stroke-width="1" fill="black" r="1"/>
<circle cx="2942" cy="593" stroke="black" stroke-width="1" fill="black" r="1"/>
<circle cx="3331" cy="1174" stroke="black" stroke-width="1" fill="black" r="1"/>
<circle cx="2904" cy="701" stroke="black" stroke-width="1" fill="black" r="1"/>
<circle cx="1887" cy="444" stroke="black" stroke-width="1" fill="black" r="1"/>
<circle cx="2039" cy="521" stroke="black" stroke-width="1" fill="black" r="1"/>
<circle cx="2674" cy="461" stroke="black" stroke-width="1" fill="black" r="1"/>
<circle cx="2082" cy="1162" stroke="black" stroke-width="1" fill="black" r="1"/>
<circle cx="2973" cy="509" stroke="black" stroke-width="1" fill="black" r="1"/>
<circle cx="2148" cy="580" stroke="black" stroke-width="1" fill="black" r="1"/>
<circle cx="1932" cy="375" stroke="black" stroke-width="1" fill="black" r="1"/>
<circle cx="2894" cy="717" stroke="black" stroke-width="1" fill="black" r="1"/>
<circle cx="3547" cy="1271" stroke="black" stroke-width="1" fill="black" r="1"/>
<circle cx="2049" cy="297" stroke="black" stroke-width="1" fill="black" r="1"/>
<circle cx="3062" cy="444" stroke="black" stroke-width="1" fill="black" r="1"/>
<circle cx="1755" cy="534" stroke="black" stroke-width="1" fill="black" r="1"/>
<circle cx="2172" cy="345" stroke="black" stroke-width="1" fill="black" r="1"/>
<circle cx="2868" cy="635" stroke="black" stroke-width="1" fill="black" r="1"/>
<circle cx="1899" cy="364" stroke="black" stroke-width="1" fill="black" r="1"/>
<circle cx="3015" cy="511" stroke="black" stroke-width="1" fill="black" r="1"/>
<circle cx="1861" cy="438" stroke="black" stroke-width="1" fill="black" r="1"/>
<circle cx="3034" cy="484" stroke="black" stroke-width="1" fill="black" r="1"/>
<circle cx="1062" cy="446" stroke="black" stroke-width="1" fill="black" r="1"/>
<circle cx="1320" cy="1059" stroke="black" stroke-width="1" fill="black" r="1"/>
<circle cx="3089" cy="549" stroke="black" stroke-width="1" fill="black" r="1"/>
<circle cx="659" cy="389" stroke="black" stroke-width="1" fill="black" r="1"/>
<circle cx="1367" cy="1129" stroke="black" stroke-width="1" fill="black" r="1"/>
<circle cx="2102" cy="302" stroke="black" stroke-width="1" fill="black" r="1"/>
<circle cx="1796" cy="382" stroke="black" stroke-width="1" fill="black" r="1"/>
<circle cx="2114" cy="599" stroke="black" stroke-width="1" fill="black" r="1"/>
<circle cx="2129" cy="499" stroke="black" stroke-width="1" fill="black" r="1"/>
<circle cx="2009" cy="379" stroke="black" stroke-width="1" fill="black" r="1"/>
<circle cx="3154" cy="553" stroke="black" stroke-width="1" fill="black" r="1"/>
<circle cx="1942" cy="399" stroke="black" stroke-width="1" fill="black" r="1"/>
<circle cx="2972" cy="532" stroke="black" stroke-width="1" fill="black" r="1"/>
<circle cx="2881" cy="674" stroke="black" stroke-width="1" fill="black" r="1"/>
<circle cx="1794" cy="518" stroke="black" stroke-width="1" fill="black" r="1"/>
<circle cx="1766" cy="341" stroke="black" stroke-width="1" fill="black" r="1"/>
<circle cx="1872" cy="464" stroke="black" stroke-width="1" fill="black" r="1"/>
<circle cx="1992" cy="426" stroke="black" stroke-width="1" fill="black" r="1"/>
<circle cx="1646" cy="621" stroke="black" stroke-width="1" fill="black" r="1"/>
<circle cx="1782" cy="376" stroke="black" stroke-width="1" fill="black" r="1"/>
<circle cx="1935" cy="377" stroke="black" stroke-width="1" fill="black" r="1"/>
<circle cx="2071" cy="518" stroke="black" stroke-width="1" fill="black" r="1"/>
<circle cx="2836" cy="535" stroke="black" stroke-width="1" fill="black" r="1"/>
<circle cx="766" cy="695" stroke="black" stroke-width="1" fill="black" r="1"/>
<circle cx="2060" cy="455" stroke="black" stroke-width="1" fill="black" r="1"/>
<circle cx="2996" cy="641" stroke="black" stroke-width="1" fill="black" r="1"/>
<circle cx="2926" cy="523" stroke="black" stroke-width="1" fill="black" r="1"/>
<circle cx="1871" cy="392" stroke="black" stroke-width="1" fill="black" r="1"/>
<circle cx="2959" cy="1220" stroke="black" stroke-width="1" fill="black" r="1"/>
<circle cx="1897" cy="444" stroke="black" stroke-width="1" fill="black" r="1"/>
<circle cx="3056" cy="461" stroke="black" stroke-width="1" fill="black" r="1"/>
<circle cx="3168" cy="552" stroke="black" stroke-width="1" fill="black" r="1"/>
<circle cx="1634" cy="620" stroke="black" stroke-width="1" fill="black" r="1"/>
<circle cx="1892" cy="414" stroke="black" stroke-width="1" fill="black" r="1"/>
<circle cx="2959" cy="612" stroke="black" stroke-width="1" fill="black" r="1"/>
<circle cx="1713" cy="488" stroke="black" stroke-width="1" fill="black" r="1"/>
<circle cx="1985" cy="1240" stroke="black" stroke-width="1" fill="black" r="1"/>
<circle cx="1923" cy="445" stroke="black" stroke-width="1" fill="black" r="1"/>
<circle cx="2918" cy="492" stroke="black" stroke-width="1" fill="black" r="1"/>
<circle cx="1214" cy="1249" stroke="black" stroke-width="1" fill="black" r="1"/>
<circle cx="1850" cy="443" stroke="black" stroke-width="1" fill="black" r="1"/>
<circle cx="2187" cy="811" stroke="black" stroke-width="1" fill="black" r="1"/>
<circle cx="1360" cy="1097" stroke="black" stroke-width="1" fill="black" r="1"/>
<circle cx="3039" cy="797" stroke="black" stroke-width="1" fill="black" r="1"/>
<circle cx="1755" cy="342" stroke="black" stroke-width="1" fill="black" r="1"/>
<circle cx="2946" cy="518" stroke="black" stroke-width="1" fill="black" r="1"/>
<circle cx="1892" cy="446" stroke="black" stroke-width="1" fill="black" r="1"/>
<circle cx="3014" cy="602" stroke="black" stroke-width="1" fill="black" r="1"/>
<circle cx="1724" cy="567" stroke="black" stroke-width="1" fill="black" r="1"/>
<circle cx="1813" cy="464" stroke="black" stroke-width="1" fill="black" r="1"/>
<circle cx="3008" cy="621" stroke="black" stroke-width="1" fill="black" r="1"/>
<circle cx="1328" cy="1131" stroke="black" stroke-width="1" fill="black" r="1"/>
<circle cx="2969" cy="581" stroke="black" stroke-width="1" fill="black" r="1"/>
<circle cx="1950" cy="526" stroke="black" stroke-width="1" fill="black" r="1"/>
<circle cx="1852" cy="466" stroke="black" stroke-width="1" fill="black" r="1"/>
<circle cx="1573" cy="261" stroke="black" stroke-width="1" fill="black" r="1"/>
<circle cx="1720" cy="530" stroke="black" stroke-width="1" fill="black" r="1"/>
<circle cx="1942" cy="492" stroke="black" stroke-width="1" fill="black" r="1"/>
<circle cx="1772" cy="387" stroke="black" stroke-width="1" fill="black" r="1"/>
<circle cx="1912" cy="455" stroke="black" stroke-width="1" fill="black" r="1"/>
<circle cx="3185" cy="1250" stroke="black" stroke-width="1" fill="black" r="1"/>
<circle cx="2863" cy="517" stroke="black" stroke-width="1" fill="black" r="1"/>
<circle cx="1288" cy="1200" stroke="black" stroke-width="1" fill="black" r="1"/>
<circle cx="2159" cy="583" stroke="black" stroke-width="1" fill="black" r="1"/>
<circle cx="1813" cy="512" stroke="black" stroke-width="1" fill="black" r="1"/>
<circle cx="1875" cy="425" stroke="black" stroke-width="1" fill="black" r="1"/>
<circle cx="2900" cy="648" stroke="black" stroke-width="1" fill="black" r="1"/>
<circle cx="1832" cy="534" stroke="black" stroke-width="1" fill="black" r="1"/>
<circle cx="2136" cy="552" stroke="black" stroke-width="1" fill="black" r="1"/>
<circle cx="1450" cy="982" stroke="black" stroke-width="1" fill="black" r="1"/>
<circle cx="1416" cy="1030" stroke="black" stroke-width="1" fill="black" r="1"/>
<circle cx="2051" cy="547" stroke="black" stroke-width="1" fill="black" r="1"/>
<circle cx="664" cy="367" stroke="black" stroke-width="1" fill="black" r="1"/>
<circle cx="1663" cy="611" stroke="black" stroke-width="1" fill="black" r="1"/>
<circle cx="2169" cy="914" stroke="black" stroke-width="1" fill="black" r="1"/>
<circle cx="1116" cy="715" stroke="black" stroke-width="1" fill="black" r="1"/>
<circle cx="630" cy="575" stroke="black" stroke-width="1" fill="black" r="1"/>
<circle cx="1922" cy="324" stroke="black" stroke-width="1" fill="black" r="1"/>
<circle cx="1795" cy="506" stroke="black" stroke-width="1" fill="black" r="1"/>
<circle cx="3525" cy="1335" stroke="black" stroke-width="1" fill="black" r="1"/>
<circle cx="3004" cy="586" stroke="black" stroke-width="1" fill="black" r="1"/>
<circle cx="1308" cy="1156" stroke="black" stroke-width="1" fill="black" r="1"/>
<circle cx="3009" cy="524" stroke="black" stroke-width="1" fill="black" r="1"/>
<circle cx="2034" cy="474" stroke="black" stroke-width="1" fill="black" r="1"/>
<circle cx="2029" cy="495" stroke="black" stroke-width="1" fill="black" r="1"/>
<circle cx="1833" cy="835" stroke="black" stroke-width="1" fill="black" r="1"/>
<circle cx="1792" cy="452" stroke="black" stroke-width="1" fill="black" r="1"/>
<circle cx="3548" cy="1314" stroke="black" stroke-width="1" fill="black" r="1"/>
<circle cx="1852" cy="298" stroke="black" stroke-width="1" fill="black" r="1"/>
<circle cx="2039" cy="331" stroke="black" stroke-width="1" fill="black" r="1"/>
<circle cx="1661" cy="616" stroke="black" stroke-width="1" fill="black" r="1"/>
<circle cx="1944" cy="542" stroke="black" stroke-width="1" fill="black" r="1"/>
<circle cx="1414" cy="938" stroke="black" stroke-width="1" fill="black" r="1"/>
<circle cx="1925" cy="483" stroke="black" stroke-width="1" fill="black" r="1"/>
<circle cx="1896" cy="376" stroke="black" stroke-width="1" fill="black" r="1"/>
<circle cx="1737" cy="354" stroke="black" stroke-width="1" fill="black" r="1"/>
<circle cx="1997" cy="400" stroke="black" stroke-width="1" fill="black" r="1"/>
<circle cx="1902" cy="532" stroke="black" stroke-width="1" fill="black" r="1"/>
<circle cx="1930" cy="519" stroke="black" stroke-width="1" fill="black" r="1"/>
<circle cx="1853" cy="386" stroke="black" stroke-width="1" fill="black" r="1"/>
<circle cx="2199" cy="466" stroke="black" stroke-width="1" fill="black" r="1"/>
<circle cx="2570" cy="467" stroke="black" stroke-width="1" fill="black" r="1"/>
<circle cx="2152" cy="531" stroke="black" stroke-width="1" fill="black" r="1"/>
<circle cx="2111" cy="1197" stroke="black" stroke-width="1" fill="black" r="1"/>
<circle cx="1783" cy="429" stroke="black" stroke-width="1" fill="black" r="1"/>
<circle cx="2408" cy="333" stroke="black" stroke-width="1" fill="black" r="1"/>
<circle cx="2080" cy="536" stroke="black" stroke-width="1" fill="black" r="1"/>
<circle cx="1783" cy="350" stroke="black" stroke-width="1" fill="black" r="1"/>
<circle cx="1903" cy="464" stroke="black" stroke-width="1" fill="black" r="1"/>
<circle cx="2139" cy="450" stroke="black" stroke-width="1" fill="black" r="1"/>
<circle cx="1741" cy="526" stroke="black" stroke-width="1" fill="black" r="1"/>
<circle cx="1770" cy="467" stroke="black" stroke-width="1" fill="black" r="1"/>
<circle cx="3257" cy="1069" stroke="black" stroke-width="1" fill="black" r="1"/>
<circle cx="702" cy="669" stroke="black" stroke-width="1" fill="black" r="1"/>
<circle cx="1771" cy="367" stroke="black" stroke-width="1" fill="black" r="1"/>
<circle cx="1786" cy="372" stroke="black" stroke-width="1" fill="black" r="1"/>
<circle cx="1043" cy="447" stroke="black" stroke-width="1" fill="black" r="1"/>
<circle cx="2137" cy="629" stroke="black" stroke-width="1" fill="black" r="1"/>
<circle cx="1636" cy="616" stroke="black" stroke-width="1" fill="black" r="1"/>
<circle cx="1967" cy="489" stroke="black" stroke-width="1" fill="black" r="1"/>
<circle cx="1984" cy="357" stroke="black" stroke-width="1" fill="black" r="1"/>
<circle cx="1800" cy="385" stroke="black" stroke-width="1" fill="black" r="1"/>
<circle cx="747" cy="694" stroke="black" stroke-width="1" fill="black" r="1"/>
<circle cx="1909" cy="266" stroke="black" stroke-width="1" fill="black" r="1"/>
<circle cx="1719" cy="584" stroke="black" stroke-width="1" fill="black" r="1"/>
<circle cx="2514" cy="390" stroke="black" stroke-width="1" fill="black" r="1"/>
<circle cx="1020" cy="715" stroke="black" stroke-width="1" fill="black" r="1"/>
<circle cx="1910" cy="406" stroke="black" stroke-width="1" fill="black" r="1"/>
<circle cx="1856" cy="312" stroke="black" stroke-width="1" fill="black" r="1"/>
<circle cx="827" cy="401" stroke="black" stroke-width="1" fill="black" r="1"/>
<circle cx="1783" cy="362" stroke="black" stroke-width="1" fill="black" r="1"/>
<circle cx="1164" cy="452" stroke="black" stroke-width="1" fill="black" r="1"/>
<circle cx="1990" cy="396" stroke="black" stroke-width="1" fill="black" r="1"/>
<circle cx="1103" cy="716" stroke="black" stroke-width="1" fill="black" r="1"/>
<circle cx="1314" cy="1177" stroke="black" stroke-width="1" fill="black" r="1"/>
<circle cx="2052" cy="354" stroke="black" stroke-width="1" fill="black" r="1"/>
<circle cx="2376" cy="1105" stroke="black" stroke-width="1" fill="black" r="1"/>
<circle cx="2087" cy="533" stroke="black" stroke-width="1" fill="black" r="1"/>
<circle cx="1821" cy="406" stroke="black" stroke-width="1" fill="black" r="1"/>
<circle cx="1862" cy="404" stroke="black" stroke-width="1" fill="black" r="1"/>
<circle cx="3086" cy="542" stroke="black" stroke-width="1" fill="black" r="1"/>
<circle cx="3056" cy="829" stroke="black" stroke-width="1" fill="black" r="1"/>
<circle cx="2076" cy="528" stroke="black" stroke-width="1" fill="black" r="1"/>
<circle cx="2191" cy="450" stroke="black" stroke-width="1" fill="black" r="1"/>
<circle cx="2125" cy="745" stroke="black" stroke-width="1" fill="black" r="1"/>
<circle cx="1872" cy="810" stroke="black" stroke-width="1" fill="black" r="1"/>
<circle cx="1891" cy="343" stroke="black" stroke-width="1" fill="black" r="1"/>
<circle cx="1315" cy="914" stroke="black" stroke-width="1" fill="black" r="1"/>
<circle cx="1632" cy="574" stroke="black" stroke-width="1" fill="black" r="1"/>
<circle cx="2249" cy="484" stroke="black" stroke-width="1" fill="black" r="1"/>
<circle cx="3291" cy="1254" stroke="black" stroke-width="1" fill="black" r="1"/>
<circle cx="1960" cy="443" stroke="black" stroke-width="1" fill="black" r="1"/>
<circle cx="1778" cy="328" stroke="black" stroke-width="1" fill="black" r="1"/>
<circle cx="2041" cy="545" stroke="black" stroke-width="1" fill="black" r="1"/>
<circle cx="2075" cy="475" stroke="black" stroke-width="1" fill="black" r="1"/>
<circle cx="2143" cy="621" stroke="black" stroke-width="1" fill="black" r="1"/>
<circle cx="1999" cy="504" stroke="black" stroke-width="1" fill="black" r="1"/>
<circle cx="1238" cy="1057" stroke="black" stroke-width="1" fill="black" r="1"/>
<circle cx="1157" cy="1214" stroke="black" stroke-width="1" fill="black" r="1"/>
<circle cx="2358" cy="355" stroke="black" stroke-width="1" fill="black" r="1"/>
<circle cx="2089" cy="431" stroke="black" stroke-width="1" fill="black" r="1"/>
<circle cx="2199" cy="426" stroke="black" stroke-width="1" fill="black" r="1"/>
<circle cx="3023" cy="784" stroke="black" stroke-width="1" fill="black" r="1"/>
<circle cx="2036" cy="433" stroke="black" stroke-width="1" fill="black" r="1"/>
<circle cx="2301" cy="365" stroke="black" stroke-width="1" fill="black" r="1"/>
<circle cx="2292" cy="344" stroke="black" stroke-width="1" fill="black" r="1"/>
<circle cx="1199" cy="931" stroke="black" stroke-width="1" fill="black" r="1"/>
<circle cx="3074" cy="533" stroke="black" stroke-width="1" fill="black" r="1"/>
<circle cx="1962" cy="511" stroke="black" stroke-width="1" fill="black" r="1"/>
<circle cx="1741" cy="354" stroke="black" stroke-width="1" fill="black" r="1"/>
<circle cx="1979" cy="307" stroke="black" stroke-width="1" fill="black" r="1"/>
<circle cx="1887" cy="370" stroke="black" stroke-width="1" fill="black" r="1"/>
<circle cx="2124" cy="553" stroke="black" stroke-width="1" fill="black" r="1"/>
<circle cx="3275" cy="1329" stroke="black" stroke-width="1" fill="black" r="1"/>
<circle cx="1798" cy="844" stroke="black" stroke-width="1" fill="black" r="1"/>
<circle cx="1446" cy="958" stroke="black" stroke-width="1" fill="black" r="1"/>
<circle cx="2192" cy="969" stroke="black" stroke-width="1" fill="black" r="1"/>
<circle cx="1922" cy="386" stroke="black" stroke-width="1" fill="black" r="1"/>
<circle cx="1184" cy="738" stroke="black" stroke-width="1" fill="black" r="1"/>
<circle cx="2070" cy="533" stroke="black" stroke-width="1" fill="black" r="1"/>
<circle cx="1715" cy="382" stroke="black" stroke-width="1" fill="black" r="1"/>
<circle cx="2724" cy="339" stroke="black" stroke-width="1" fill="black" r="1"/>
<circle cx="2096" cy="591" stroke="black" stroke-width="1" fill="black" r="1"/>
<circle cx="3121" cy="467" stroke="black" stroke-width="1" fill="black" r="1"/>
<circle cx="1255" cy="1157" stroke="black" stroke-width="1" fill="black" r="1"/>
<circle cx="903" cy="691" stroke="black" stroke-width="1" fill="black" r="1"/>
<circle cx="2154" cy="513" stroke="black" stroke-width="1" fill="black" r="1"/>
<circle cx="3108" cy="1025" stroke="black" stroke-width="1" fill="black" r="1"/>
<circle cx="1442" cy="996" stroke="black" stroke-width="1" fill="black" r="1"/>
<circle cx="3025" cy="793" stroke="black" stroke-width="1" fill="black" r="1"/>
<circle cx="2843" cy="378" stroke="black" stroke-width="1" fill="black" r="1"/>
<circle cx="2078" cy="468" stroke="black" stroke-width="1" fill="black" r="1"/>
<circle cx="1190" cy="755" stroke="black" stroke-width="1" fill="black" r="1"/>
<circle cx="565" cy="414" stroke="black" stroke-width="1" fill="black" r="1"/>
<circle cx="1930" cy="423" stroke="black" stroke-width="1" fill="black" r="1"/>
<circle cx="606" cy="401" stroke="black" stroke-width="1" fill="black" r="1"/>
<circle cx="3487" cy="1351" stroke="black" stroke-width="1" fill="black" r="1"/>
<circle cx="2104" cy="396" stroke="black" stroke-width="1" fill="black" r="1"/>
<circle cx="2453" cy="329" stroke="black" stroke-width="1" fill="black" r="1"/>
<circle cx="2987" cy="803" stroke="black" stroke-width="1" fill="black" r="1"/>
<circle cx="3044" cy="814" stroke="black" stroke-width="1" fill="black" r="1"/>
<circle cx="1112" cy="1229" stroke="black" stroke-width="1" fill="black" r="1"/>
<circle cx="1710" cy="373" stroke="black" stroke-width="1" fill="black" r="1"/>
<circle cx="2534" cy="287" stroke="black" stroke-width="1" fill="black" r="1"/>
<circle cx="1937" cy="389" stroke="black" stroke-width="1" fill="black" r="1"/>
<circle cx="1086" cy="432" stroke="black" stroke-width="1" fill="black" r="1"/>
<circle cx="2008" cy="523" stroke="black" stroke-width="1" fill="black" r="1"/>
<circle cx="689" cy="610" stroke="black" stroke-width="1" fill="black" r="1"/>
<circle cx="2013" cy="442" stroke="black" stroke-width="1" fill="black" r="1"/>
<circle cx="1357" cy="926" stroke="black" stroke-width="1" fill="black" r="1"/>
<circle cx="1313" cy="1169" stroke="black" stroke-width="1" fill="black" r="1"/>
<circle cx="1705" cy="597" stroke="black" stroke-width="1" fill="black" r="1"/>
<circle cx="1253" cy="1105" stroke="black" stroke-width="1" fill="black" r="1"/>
<circle cx="3005" cy="749" stroke="black" stroke-width="1" fill="black" r="1"/>
<circle cx="1272" cy="424" stroke="black" stroke-width="1" fill="black" r="1"/>
<circle cx="3029" cy="794" stroke="black" stroke-width="1" fill="black" r="1"/>
<circle cx="733" cy="379" stroke="black" stroke-width="1" fill="black" r="1"/>
<circle cx="1739" cy="465" stroke="black" stroke-width="1" fill="black" r="1"/>
<circle cx="1093" cy="706" stroke="black" stroke-width="1" fill="black" r="1"/>
<circle cx="1450" cy="972" stroke="black" stroke-width="1" fill="black" r="1"/>
<circle cx="838" cy="709" stroke="black" stroke-width="1" fill="black" r="1"/>
<circle cx="303" cy="1076" stroke="black" stroke-width="1" fill="black" r="1"/>
<circle cx="1088" cy="1312" stroke="black" stroke-width="1" fill="black" r="1"/>
<circle cx="871" cy="721" stroke="black" stroke-width="1" fill="black" r="1"/>
<circle cx="753" cy="396" stroke="black" stroke-width="1" fill="black" r="1"/>
<circle cx="2076" cy="429" stroke="black" stroke-width="1" fill="black" r="1"/>
<circle cx="1570" cy="733" stroke="black" stroke-width="1" fill="black" r="1"/>
<circle cx="1913" cy="428" stroke="black" stroke-width="1" fill="black" r="1"/>
<circle cx="1145" cy="1149" stroke="black" stroke-width="1" fill="black" r="1"/>
<circle cx="1740" cy="543" stroke="black" stroke-width="1" fill="black" r="1"/>
<circle cx="2002" cy="263" stroke="black" stroke-width="1" fill="black" r="1"/>
<circle cx="2243" cy="413" stroke="black" stroke-width="1" fill="black" r="1"/>
<circle cx="1139" cy="716" stroke="black" stroke-width="1" fill="black" r="1"/>
<circle cx="1255" cy="1158" stroke="black" stroke-width="1" fill="black" r="1"/>
<circle cx="3020" cy="831" stroke="black" stroke-width="1" fill="black" r="1"/>
<circle cx="3501" cy="1360" stroke="black" stroke-width="1" fill="black" r="1"/>
<circle cx="1876" cy="379" stroke="black" stroke-width="1" fill="black" r="1"/>
<circle cx="2237" cy="338" stroke="black" stroke-width="1" fill="black" r="1"/>
<circle cx="1954" cy="431" stroke="black" stroke-width="1" fill="black" r="1"/>
<circle cx="1094" cy="703" stroke="black" stroke-width="1" fill="black" r="1"/>
<circle cx="2053" cy="251" stroke="black" stroke-width="1" fill="black" r="1"/>
<circle cx="1732" cy="560" stroke="black" stroke-width="1" fill="black" r="1"/>
<circle cx="1765" cy="393" stroke="black" stroke-width="1" fill="black" r="1"/>
<circle cx="2351" cy="652" stroke="black" stroke-width="1" fill="black" r="1"/>
<circle cx="832" cy="730" stroke="black" stroke-width="1" fill="black" r="1"/>
<circle cx="1118" cy="1290" stroke="black" stroke-width="1" fill="black" r="1"/>
<circle cx="696" cy="660" stroke="black" stroke-width="1" fill="black" r="1"/>
<circle cx="3052" cy="839" stroke="black" stroke-width="1" fill="black" r="1"/>
<circle cx="1020" cy="558" stroke="black" stroke-width="1" fill="black" r="1"/>
<circle cx="647" cy="574" stroke="black" stroke-width="1" fill="black" r="1"/>
<circle cx="1116" cy="1449" stroke="black" stroke-width="1" fill="black" r="1"/>
<circle cx="3095" cy="455" stroke="black" stroke-width="1" fill="black" r="1"/>
<circle cx="1160" cy="988" stroke="black" stroke-width="1" fill="black" r="1"/>
<circle cx="837" cy="743" stroke="black" stroke-width="1" fill="black" r="1"/>
<circle cx="906" cy="417" stroke="black" stroke-width="1" fill="black" r="1"/>
<circle cx="776" cy="683" stroke="black" stroke-width="1" fill="black" r="1"/>
<circle cx="1192" cy="1230" stroke="black" stroke-width="1" fill="black" r="1"/>
<circle cx="2982" cy="603" stroke="black" stroke-width="1" fill="black" r="1"/>
<circle cx="687" cy="334" stroke="black" stroke-width="1" fill="black" r="1"/>
<circle cx="1769" cy="551" stroke="black" stroke-width="1" fill="black" r="1"/>
<circle cx="576" cy="410" stroke="black" stroke-width="1" fill="black" r="1"/>
<circle cx="1153" cy="439" stroke="black" stroke-width="1" fill="black" r="1"/>
<circle cx="1565" cy="751" stroke="black" stroke-width="1" fill="black" r="1"/>
<circle cx="3556" cy="1304" stroke="black" stroke-width="1" fill="black" r="1"/>
<circle cx="2005" cy="519" stroke="black" stroke-width="1" fill="black" r="1"/>
<circle cx="1125" cy="1358" stroke="black" stroke-width="1" fill="black" r="1"/>
<circle cx="2192" cy="382" stroke="black" stroke-width="1" fill="black" r="1"/>
<circle cx="1079" cy="1403" stroke="black" stroke-width="1" fill="black" r="1"/>
<circle cx="1000" cy="469" stroke="black" stroke-width="1" fill="black" r="1"/>
<circle cx="2058" cy="235" stroke="black" stroke-width="1" fill="black" r="1"/>
<circle cx="1289" cy="900" stroke="black" stroke-width="1" fill="black" r="1"/>
<circle cx="1148" cy="1169" stroke="black" stroke-width="1" fill="black" r="1"/>
<circle cx="930" cy="695" stroke="black" stroke-width="1" fill="black" r="1"/>
<circle cx="3462" cy="1121" stroke="black" stroke-width="1" fill="black" r="1"/>
<circle cx="1812" cy="374" stroke="black" stroke-width="1" fill="black" r="1"/>
<circle cx="988" cy="470" stroke="black" stroke-width="1" fill="black" r="1"/>
<circle cx="816" cy="709" stroke="black" stroke-width="1" fill="black" r="1"/>
<circle cx="2040" cy="443" stroke="black" stroke-width="1" fill="black" r="1"/>
<circle cx="2215" cy="484" stroke="black" stroke-width="1" fill="black" r="1"/>
<circle cx="2012" cy="414" stroke="black" stroke-width="1" fill="black" r="1"/>
<circle cx="2165" cy="394" stroke="black" stroke-width="1" fill="black" r="1"/>
<circle cx="1058" cy="485" stroke="black" stroke-width="1" fill="black" r="1"/>
<circle cx="2065" cy="510" stroke="black" stroke-width="1" fill="black" r="1"/>
<circle cx="2069" cy="435" stroke="black" stroke-width="1" fill="black" r="1"/>
<circle cx="2181" cy="345" stroke="black" stroke-width="1" fill="black" r="1"/>
<circle cx="2069" cy="524" stroke="black" stroke-width="1" fill="black" r="1"/>
<circle cx="2224" cy="479" stroke="black" stroke-width="1" fill="black" r="1"/>
<circle cx="1941" cy="418" stroke="black" stroke-width="1" fill="black" r="1"/>
<circle cx="2661" cy="348" stroke="black" stroke-width="1" fill="black" r="1"/>
<circle cx="3022" cy="1080" stroke="black" stroke-width="1" fill="black" r="1"/>
<circle cx="2252" cy="1029" stroke="black" stroke-width="1" fill="black" r="1"/>
<circle cx="1134" cy="442" stroke="black" stroke-width="1" fill="black" r="1"/>
<circle cx="2520" cy="188" stroke="black" stroke-width="1" fill="black" r="1"/>
<circle cx="1828" cy="388" stroke="black" stroke-width="1" fill="black" r="1"/>
<circle cx="882" cy="714" stroke="black" stroke-width="1" fill="black" r="1"/>
<circle cx="2986" cy="1104" stroke="black" stroke-width="1" fill="black" r="1"/>
<circle cx="449" cy="293" stroke="black" stroke-width="1" fill="black" r="1"/>
<circle cx="709" cy="644" stroke="black" stroke-width="1" fill="black" r="1"/>
<circle cx="1121" cy="999" stroke="black" stroke-width="1" fill="black" r="1"/>
<circle cx="2046" cy="491" stroke="black" stroke-width="1" fill="black" r="1"/>
<circle cx="2022" cy="295" stroke="black" stroke-width="1" fill="black" r="1"/>
<circle cx="2016" cy="426" stroke="black" stroke-width="1" fill="black" r="1"/>
<circle cx="1209" cy="1175" stroke="black" stroke-width="1" fill="black" r="1"/>
<circle cx="970" cy="478" stroke="black" stroke-width="1" fill="black" r="1"/>
<circle cx="1926" cy="460" stroke="black" stroke-width="1" fill="black" r="1"/>
<circle cx="701" cy="627" stroke="black" stroke-width="1" fill="black" r="1"/>
<circle cx="2010" cy="341" stroke="black" stroke-width="1" fill="black" r="1"/>
<circle cx="3063" cy="551" stroke="black" stroke-width="1" fill="black" r="1"/>
<circle cx="876" cy="753" stroke="black" stroke-width="1" fill="black" r="1"/>
<circle cx="2020" cy="530" stroke="black" stroke-width="1" fill="black" r="1"/>
<circle cx="1193" cy="872" stroke="black" stroke-width="1" fill="black" r="1"/>
<circle cx="1224" cy="1280" stroke="black" stroke-width="1" fill="black" r="1"/>
<circle cx="916" cy="715" stroke="black" stroke-width="1" fill="black" r="1"/>
<circle cx="1844" cy="389" stroke="black" stroke-width="1" fill="black" r="1"/>
<circle cx="1149" cy="1144" stroke="black" stroke-width="1" fill="black" r="1"/>
<circle cx="2232" cy="1016" stroke="black" stroke-width="1" fill="black" r="1"/>
<circle cx="1925" cy="470" stroke="black" stroke-width="1" fill="black" r="1"/>
<circle cx="1106" cy="1417" stroke="black" stroke-width="1" fill="black" r="1"/>
<circle cx="3563" cy="1282" stroke="black" stroke-width="1" fill="black" r="1"/>
<circle cx="2077" cy="270" stroke="black" stroke-width="1" fill="black" r="1"/>
<circle cx="2035" cy="286" stroke="black" stroke-width="1" fill="black" r="1"/>
<circle cx="1943" cy="434" stroke="black" stroke-width="1" fill="black" r="1"/>
<circle cx="2074" cy="214" stroke="black" stroke-width="1" fill="black" r="1"/>
<circle cx="3005" cy="719" stroke="black" stroke-width="1" fill="black" r="1"/>
<circle cx="1110" cy="716" stroke="black" stroke-width="1" fill="black" r="1"/>
<circle cx="2387" cy="367" stroke="black" stroke-width="1" fill="black" r="1"/>
<circle cx="1858" cy="444" stroke="black" stroke-width="1" fill="black" r="1"/>
<circle cx="2713" cy="363" stroke="black" stroke-width="1" fill="black" r="1"/>
<circle cx="754" cy="709" stroke="black" stroke-width="1" fill="black" r="1"/>
<circle cx="894" cy="702" stroke="black" stroke-width="1" fill="black" r="1"/>
<circle cx="1254" cy="411" stroke="black" stroke-width="1" fill="black" r="1"/>
<circle cx="2059" cy="492" stroke="black" stroke-width="1" fill="black" r="1"/>
<circle cx="2920" cy="466" stroke="black" stroke-width="1" fill="black" r="1"/>
<circle cx="2019" cy="430" stroke="black" stroke-width="1" fill="black" r="1"/>
<circle cx="1102" cy="708" stroke="black" stroke-width="1" fill="black" r="1"/>
<circle cx="642" cy="404" stroke="black" stroke-width="1" fill="black" r="1"/>
<circle cx="2084" cy="457" stroke="black" stroke-width="1" fill="black" r="1"/>
<circle cx="2545" cy="279" stroke="black" stroke-width="1" fill="black" r="1"/>
<circle cx="1876" cy="455" stroke="black" stroke-width="1" fill="black" r="1"/>
<circle cx="1966" cy="305" stroke="black" stroke-width="1" fill="black" r="1"/>
<circle cx="1217" cy="1163" stroke="black" stroke-width="1" fill="black" r="1"/>
<circle cx="2009" cy="366" stroke="black" stroke-width="1" fill="black" r="1"/>
<circle cx="1212" cy="1175" stroke="black" stroke-width="1" fill="black" r="1"/>
<circle cx="2052" cy="501" stroke="black" stroke-width="1" fill="black" r="1"/>
<circle cx="2048" cy="480" stroke="black" stroke-width="1" fill="black" r="1"/>
<circle cx="824" cy="643" stroke="black" stroke-width="1" fill="black" r="1"/>
<circle cx="686" cy="641" stroke="black" stroke-width="1" fill="black" r="1"/>
<circle cx="1072" cy="976" stroke="black" stroke-width="1" fill="black" r="1"/>
<circle cx="810" cy="663" stroke="black" stroke-width="1" fill="black" r="1"/>
<circle cx="1100" cy="943" stroke="black" stroke-width="1" fill="black" r="1"/>
<circle cx="1142" cy="1186" stroke="black" stroke-width="1" fill="black" r="1"/>
<circle cx="2028" cy="423" stroke="black" stroke-width="1" fill="black" r="1"/>
<circle cx="1379" cy="1130" stroke="black" stroke-width="1" fill="black" r="1"/>
<circle cx="1100" cy="715" stroke="black" stroke-width="1" fill="black" r="1"/>
<circle cx="1276" cy="1218" stroke="black" stroke-width="1" fill="black" r="1"/>
<circle cx="1223" cy="1091" stroke="black" stroke-width="1" fill="black" r="1"/>
<circle cx="1229" cy="1198" stroke="black" stroke-width="1" fill="black" r="1"/>
<circle cx="2141" cy="368" stroke="black" stroke-width="1" fill="black" r="1"/>
<circle cx="3086" cy="520" stroke="black" stroke-width="1" fill="black" r="1"/>
<circle cx="690" cy="621" stroke="black" stroke-width="1" fill="black" r="1"/>
<circle cx="1971" cy="434" stroke="black" stroke-width="1" fill="black" r="1"/>
<circle cx="2012" cy="439" stroke="black" stroke-width="1" fill="black" r="1"/>
<circle cx="1382" cy="929" stroke="black" stroke-width="1" fill="black" r="1"/>
<circle cx="2175" cy="345" stroke="black" stroke-width="1" fill="black" r="1"/>
<circle cx="1832" cy="392" stroke="black" stroke-width="1" fill="black" r="1"/>
<circle cx="2061" cy="455" stroke="black" stroke-width="1" fill="black" r="1"/>
<circle cx="2010" cy="335" stroke="black" stroke-width="1" fill="black" r="1"/>
<circle cx="1982" cy="441" stroke="black" stroke-width="1" fill="black" r="1"/>
<circle cx="2033" cy="342" stroke="black" stroke-width="1" fill="black" r="1"/>
<circle cx="2044" cy="436" stroke="black" stroke-width="1" fill="black" r="1"/>
<circle cx="2057" cy="469" stroke="black" stroke-width="1" fill="black" r="1"/>
<circle cx="1447" cy="960" stroke="black" stroke-width="1" fill="black" r="1"/>
<circle cx="2087" cy="488" stroke="black" stroke-width="1" fill="black" r="1"/>
</svg>
